<svg viewBox="0 0 240 48" width="240" height="48" fill="none" role="img" aria-label="quickbits" shape-rendering="crispEdges" xmlns="http://www.w3.org/2000/svg"><rect x="12" y="18" width="12" height="6" fill="#d6d3cd"></rect><rect x="12" y="24" width="12" height="6" fill="#d6d3cd"></rect><rect x="6" y="6" width="24" height="6" fill="#57534e"></rect><rect x="6" y="12" width="6" height="6" fill="#57534e"></rect><rect x="24" y="12" width="6" height="6" fill="#57534e"></rect><rect x="6" y="18" width="6" height="6" fill="#57534e"></rect><rect x="24" y="18" width="6" height="6" fill="#57534e"></rect><rect x="6" y="24" width="6" height="6" fill="#57534e"></rect><rect x="24" y="24" width="6" height="6" fill="#57534e"></rect><rect x="6" y="30" width="24" height="6" fill="#57534e"></rect><rect x="24" y="36" width="6" height="6" fill="#4ade80"></rect><rect x="42" y="18" width="12" height="6" fill="#d6d3cd"></rect><rect x="42" y="24" width="12" height="6" fill="#d6d3cd"></rect><rect x="36" y="6" width="6" height="6" fill="#57534e"></rect><rect x="54" y="6" width="6" height="6" fill="#57534e"></rect><rect x="36" y="12" width="6" height="6" fill="#57534e"></rect><rect x="54" y="12" width="6" height="6" fill="#57534e"></rect><rect x="36" y="18" width="6" height="6" fill="#57534e"></rect><rect x="54" y="18" width="6" height="6" fill="#57534e"></rect><rect x="36" y="24" width="6" height="6" fill="#57534e"></rect><rect x="54" y="24" width="6" height="6" fill="#57534e"></rect><rect x="36" y="30" width="24" height="6" fill="#57534e"></rect><rect x="66" y="6" width="6" height="6" fill="#57534e"></rect><rect x="66" y="18" width="6" height="6" fill="#57534e"></rect><rect x="66" y="24" width="6" height="6" fill="#57534e"></rect><rect x="66" y="30" width="6" height="6" fill="#57534e"></rect><rect x="84" y="24" width="12" height="6" fill="#d6d3cd"></rect><rect x="78" y="6" width="24" height="6" fill="#57534e"></rect><rect x="78" y="12" width="6" height="6" fill="#57534e"></rect><rect x="78" y="18" width="6" height="6" fill="#57534e"></rect><rect x="78" y="24" width="6" height="6" fill="#57534e"></rect><rect x="78" y="30" width="24" height="6" fill="#57534e"></rect><rect x="108" y="6" width="6" height="6" fill="#57534e"></rect><rect x="126" y="6" width="6" height="6" fill="#57534e"></rect><rect x="108" y="12" width="6" height="6" fill="#57534e"></rect><rect x="120" y="12" width="6" height="6" fill="#57534e"></rect><rect x="108" y="18" width="12" height="6" fill="#57534e"></rect><rect x="108" y="24" width="6" height="6" fill="#57534e"></rect><rect x="120" y="24" width="6" height="6" fill="#57534e"></rect><rect x="108" y="30" width="6" height="6" fill="#57534e"></rect><rect x="126" y="30" width="6" height="6" fill="#57534e"></rect><rect x="144" y="24" width="12" height="6" fill="#d6d3cd"></rect><rect x="138" y="6" width="6" height="6" fill="#1c1917"></rect><rect x="138" y="12" width="6" height="6" fill="#1c1917"></rect><rect x="138" y="18" width="24" height="6" fill="#1c1917"></rect><rect x="138" y="24" width="6" height="6" fill="#1c1917"></rect><rect x="156" y="24" width="6" height="6" fill="#1c1917"></rect><rect x="138" y="30" width="24" height="6" fill="#1c1917"></rect><rect x="168" y="6" width="6" height="6" fill="#1c1917"></rect><rect x="168" y="18" width="6" height="6" fill="#1c1917"></rect><rect x="168" y="24" width="6" height="6" fill="#1c1917"></rect><rect x="168" y="30" width="6" height="6" fill="#1c1917"></rect><rect x="186" y="6" width="6" height="6" fill="#1c1917"></rect><rect x="180" y="12" width="24" height="6" fill="#1c1917"></rect><rect x="186" y="18" width="6" height="6" fill="#1c1917"></rect><rect x="186" y="24" width="6" height="6" fill="#1c1917"></rect><rect x="186" y="30" width="12" height="6" fill="#1c1917"></rect><rect x="210" y="6" width="24" height="6" fill="#1c1917"></rect><rect x="210" y="12" width="6" height="6" fill="#1c1917"></rect><rect x="210" y="18" width="24" height="6" fill="#1c1917"></rect><rect x="228" y="24" width="6" height="6" fill="#1c1917"></rect><rect x="210" y="30" width="24" height="6" fill="#1c1917"></rect></svg>